<svg width="149" height="40" viewBox="0 0 149 40" fill="none" xmlns="http://www.w3.org/2000/svg">
<g clip-path="url(#clip0)">
<path d="M39.9279 20.15C40.3601 19.8499 40.6279 19.3686 40.6534 18.8464C40.679 18.3241 40.4593 17.8195 40.0584 17.4794C39.029 16.5878 37.9208 15.7852 36.7496 15.0853C35.4189 14.3291 33.7305 14.6461 32.7713 15.8321C30.9858 18.0356 27.6972 22.8373 21.777 25.9526C20.3493 26.7016 22.164 28.2899 23.1609 29.0367C23.5028 29.2919 23.9629 29.328 24.3411 29.1292C26.778 27.8363 35.9294 22.9064 39.9279 20.15Z" fill="url(#paint0_linear)"/>
<path d="M34.0813 33.8361C34.6052 33.9255 35.1404 33.7701 35.5325 33.418C35.9246 33.0648 36.1296 32.5539 36.0902 32.0319C36.006 30.6814 35.7986 29.3412 35.4705 28.0278C35.0655 26.5627 33.6446 25.609 32.1232 25.781C29.2738 26.1119 23.4895 27.2107 17.0596 25.2869C15.5093 24.8219 15.6501 27.2141 15.8169 28.4403C15.878 28.8608 16.1803 29.2074 16.5909 29.3279C19.2521 30.1126 29.284 33.0022 34.0813 33.8372V33.8361Z" fill="url(#paint1_linear)"/>
<path d="M20.1389 39.28C20.4466 39.7084 20.9363 39.9732 21.4672 39.9982C21.998 40.0232 22.511 39.8056 22.8585 39.4081C23.7677 38.3978 24.5847 37.3099 25.2997 36.1571C26.0662 34.8456 25.7405 33.1766 24.5356 32.241C22.2927 30.4862 17.4024 27.2541 14.2342 21.4317C13.4678 20.0246 11.8538 21.8105 11.0897 22.7932C10.8301 23.1281 10.7948 23.5828 10.9995 23.953C12.3024 26.3472 17.3257 35.3516 20.1389 39.28Z" fill="url(#paint2_linear)"/>
<path d="M6.33127 33.5113C6.24255 34.0247 6.39866 34.5515 6.75469 34.9366C7.11072 35.3227 7.62624 35.5259 8.15298 35.4868C9.51971 35.4009 10.8763 35.197 12.2075 34.8774C13.6811 34.4907 14.648 33.0903 14.4807 31.5848C14.1471 28.7777 13.0352 23.0866 14.9805 16.7626C15.4477 15.2346 13.0285 15.3763 11.7874 15.5415C11.3649 15.5964 11.0145 15.8934 10.8934 16.2994C10.0994 18.9078 7.1725 28.7744 6.33127 33.5101V33.5113Z" fill="url(#paint3_linear)"/>
<path d="M0.727519 19.8502C0.295346 20.1503 0.0275243 20.6315 0.00200183 21.1538C-0.0235207 21.676 0.196123 22.1806 0.597008 22.5207C1.62647 23.4123 2.73355 24.2137 3.9059 24.9147C5.2366 25.6709 6.92497 25.3539 7.88421 24.168C9.66861 21.9645 12.9584 17.163 18.8786 14.0478C20.3063 13.2977 18.4904 11.7094 17.4947 10.9627C17.1526 10.7078 16.6925 10.6722 16.3145 10.8713C13.8776 12.1497 4.72496 17.0838 0.727519 19.8491V19.8502Z" fill="url(#paint4_linear)"/>
<path d="M6.57329 6.2594C6.05042 6.17108 5.51517 6.32647 5.12302 6.67861C4.73087 7.03074 4.52579 7.54162 4.56523 8.06367C4.6499 9.414 4.85618 10.7541 5.18162 12.068C5.58797 13.5323 7.00817 14.4855 8.52951 14.3149C11.3793 13.984 17.1646 12.8863 23.5956 14.809C25.1461 15.2741 25.0053 12.8829 24.8385 11.6566C24.7777 11.2357 24.4753 10.8885 24.0644 10.7679C21.423 9.98309 11.3883 7.09334 6.57441 6.2594H6.57329Z" fill="url(#paint5_linear)"/>
<path d="M20.517 0.720092C20.2093 0.291746 19.7194 0.026951 19.1885 0.00194248C18.6576 -0.023066 18.1445 0.194487 17.797 0.591968C16.8875 1.60263 16.0705 2.69093 15.3554 3.8441C14.5895 5.15535 14.9151 6.82362 16.1196 7.75913C18.3628 9.51164 23.2528 12.7459 26.4215 18.5684C27.188 19.9755 28.8033 18.1896 29.5665 17.208C29.8251 16.8723 29.8604 16.4179 29.6567 16.0471C28.3434 13.654 23.3238 4.64961 20.517 0.720092Z" fill="url(#paint6_linear)"/>
<path d="M31.609 17.3571C32.6676 13.6027 33.8398 9.20215 34.3241 6.48607C34.4129 5.97249 34.2567 5.44776 33.9004 5.0623C33.5431 4.6764 33.0271 4.47403 32.5002 4.51307C31.1325 4.59885 29.775 4.80272 28.4433 5.12134C26.9687 5.50779 26.0018 6.90614 26.1699 8.40894C26.5036 11.2097 27.6162 16.8903 25.6687 23.2025C25.6396 23.2997 25.6219 23.3999 25.6158 23.5011C27.8601 21.7044 29.8729 19.6409 31.609 17.3571Z" fill="url(#paint7_linear)"/>
</g>
<path d="M123.611 9.96137H121.719C121.699 9.96108 121.679 9.96473 121.661 9.97212C121.642 9.97952 121.625 9.9905 121.611 10.0044C121.597 10.0184 121.586 10.035 121.578 10.0534C121.57 10.0717 121.566 10.0914 121.566 10.1114V15.0525H117.291C117.19 15.0617 117.087 15.0506 116.99 15.0197C116.893 14.9888 116.803 14.9387 116.726 14.8725C116.654 14.7807 116.6 14.6755 116.569 14.563C116.538 14.4505 116.53 14.3328 116.544 14.2169V6.94359C116.544 6.90409 116.529 6.86615 116.501 6.8379C116.474 6.80966 116.436 6.79335 116.397 6.79248H114.502C114.462 6.7936 114.425 6.80988 114.397 6.83798C114.369 6.86608 114.352 6.90387 114.351 6.94359V14.7891C114.307 15.318 114.457 15.8447 114.772 16.2714C115.052 16.5858 115.519 16.7436 116.173 16.7436H123.618C123.638 16.744 123.658 16.7405 123.676 16.733C123.695 16.7256 123.712 16.7145 123.726 16.7004C123.74 16.6863 123.751 16.6695 123.759 16.6509C123.766 16.6324 123.77 16.6125 123.77 16.5925V10.1114C123.77 10.0908 123.766 10.0703 123.758 10.0512C123.75 10.0322 123.739 10.015 123.724 10.0009C123.709 9.98672 123.691 9.97588 123.672 9.96908C123.652 9.96227 123.632 9.95964 123.611 9.96137V9.96137ZM142.919 10.1247C142.887 10.1341 142.859 10.1535 142.839 10.1801C142.819 10.2068 142.808 10.2392 142.808 10.2725V11.528C142.808 11.5725 142.827 11.6147 142.861 11.6436C142.896 11.6714 142.941 11.6836 142.985 11.6758C143.758 11.5247 146.804 11.0425 146.804 12.8236V15.0525H142.238C142.198 15.0525 142.16 15.0684 142.132 15.0967C142.104 15.1251 142.088 15.1635 142.088 15.2036V16.5936C142.088 16.6769 142.154 16.7447 142.238 16.7447H148.848C148.932 16.7447 149 16.678 149 16.5936V12.9114C149 8.72804 143.751 9.91137 142.919 10.1247V10.1247Z" fill="white"/>
<path d="M119.626 10.1147C119.891 10.0738 120.131 9.93571 120.3 9.72717C120.469 9.51864 120.556 9.25449 120.542 8.98582C120.527 8.71748 120.413 8.46429 120.223 8.27496C120.033 8.08563 119.78 7.97354 119.513 7.96026C119.245 7.94518 118.981 8.02998 118.772 8.19837C118.563 8.36677 118.423 8.60686 118.379 8.87248C118.324 9.21693 118.438 9.56471 118.685 9.81137C118.932 10.0558 119.283 10.1703 119.626 10.1147ZM140.443 16.5936V12.3769C140.443 7.15471 133.997 8.25915 132.879 8.48804C132.858 8.49169 132.838 8.49994 132.821 8.51219C132.804 8.52445 132.79 8.5404 132.779 8.5589C132.769 8.5774 132.763 8.59799 132.761 8.61917C132.76 8.64035 132.763 8.6616 132.771 8.68137L133.191 9.97471C133.201 10.0093 133.224 10.0389 133.255 10.0576C133.285 10.0763 133.322 10.0828 133.357 10.0758L133.83 10.0003C135.161 9.83693 138.236 9.72248 138.236 12.2003V15.0525H136.513V13.8036C136.527 13.305 136.449 12.808 136.283 12.338C136.148 12.0015 135.935 11.7023 135.662 11.4658C135.398 11.2451 135.089 11.0861 134.757 11.0003C134.05 10.8121 133.306 10.8121 132.599 11.0003C132.257 11.086 131.941 11.252 131.675 11.4846C131.41 11.7172 131.203 12.0097 131.073 12.338C130.909 12.8092 130.83 13.3047 130.844 13.8047C130.839 14.2258 130.893 14.6458 131.005 15.0525H128.66C128.558 15.0616 128.456 15.0504 128.359 15.0195C128.263 14.9886 128.173 14.9386 128.095 14.8725C128.023 14.7807 127.97 14.6755 127.939 14.563C127.908 14.4505 127.899 14.3328 127.914 14.2169V6.9436C127.914 6.92366 127.91 6.90392 127.902 6.88551C127.895 6.8671 127.883 6.8504 127.869 6.83635C127.855 6.8223 127.838 6.8112 127.82 6.80367C127.802 6.79614 127.782 6.79234 127.762 6.79248H125.872C125.832 6.79332 125.794 6.80948 125.766 6.83761C125.737 6.86574 125.721 6.90369 125.72 6.9436V14.7892C125.676 15.318 125.826 15.8447 126.141 16.2714C126.419 16.5858 126.887 16.7436 127.542 16.7436H140.293C140.332 16.7433 140.371 16.7273 140.399 16.699C140.427 16.6707 140.443 16.6325 140.443 16.5925V16.5936ZM134.741 15.0525H133.689C132.987 15.0525 132.639 14.6458 132.636 13.8036C132.636 12.9547 132.987 12.5547 133.688 12.5547C134.389 12.5547 134.74 12.9614 134.74 13.8036V15.0525H134.741ZM51.2814 9.28804C51.5452 9.24715 51.7845 9.10958 51.9532 8.90191C52.1218 8.69424 52.2078 8.4312 52.1946 8.1636C52.1796 7.89577 52.0663 7.643 51.8766 7.45403C51.687 7.26507 51.4343 7.15329 51.1674 7.14026C50.9007 7.12545 50.638 7.21004 50.4296 7.37778C50.2213 7.54552 50.0819 7.78461 50.0384 8.04915C50.0123 8.21815 50.0264 8.39097 50.0797 8.55341C50.133 8.71585 50.2239 8.86329 50.345 8.9836C50.5907 9.22804 50.9383 9.34248 51.2814 9.28915V9.28804ZM53.877 9.28804C54.1401 9.24588 54.3784 9.10746 54.546 8.89945C54.7136 8.69143 54.7986 8.42853 54.7846 8.16137C54.7691 7.89412 54.6557 7.64204 54.4663 7.45357C54.277 7.26509 54.0249 7.15351 53.7585 7.14026C53.4918 7.12545 53.2291 7.21004 53.0207 7.37778C52.8124 7.54552 52.6731 7.78461 52.6295 8.04915C52.6032 8.21859 52.6173 8.39189 52.6708 8.55476C52.7243 8.71763 52.8156 8.86538 52.9372 8.98582C53.1841 9.23026 53.5327 9.3436 53.877 9.28915V9.28804ZM66.8669 17.6303C66.6022 17.6714 66.3622 17.8096 66.1931 18.0181C66.024 18.2266 65.9379 18.4906 65.9515 18.7592C65.9665 19.0277 66.0799 19.2811 66.27 19.4707C66.4601 19.6603 66.7133 19.7725 66.9809 19.7858C67.2486 19.8006 67.5123 19.7155 67.7213 19.5469C67.9303 19.3783 68.0699 19.1381 68.1132 18.8725C68.1395 18.7031 68.1255 18.5299 68.0722 18.3671C68.0189 18.2043 67.9279 18.0565 67.8066 17.9358C67.6846 17.8144 67.5359 17.7235 67.3725 17.6704C67.209 17.6174 67.0355 17.6036 66.8658 17.6303H66.8669ZM55.6224 22.0303H53.6501C53.6289 22.0268 53.6072 22.0284 53.5868 22.0349C53.5664 22.0415 53.5479 22.0529 53.5327 22.068C53.5178 22.0829 53.5066 22.1012 53.5 22.1213C53.4935 22.1414 53.4918 22.1627 53.4951 22.1836V28.8891C53.5305 29.378 53.3866 29.8625 53.0911 30.2525C52.9457 30.411 52.7669 30.5351 52.5679 30.6159C52.3688 30.6966 52.1543 30.7318 51.94 30.7191C51.6764 30.7223 51.4167 30.6552 51.1873 30.5247C50.9874 30.4118 50.8063 30.2682 50.6505 30.0991C50.6385 30.0826 50.6233 30.0687 50.6059 30.0581C50.5884 30.0474 50.5691 30.0404 50.5489 30.0373C50.5288 30.0342 50.5082 30.0351 50.4884 30.04C50.4686 30.0449 50.45 30.0537 50.4336 30.0658L48.9902 31.168C48.9625 31.197 48.947 31.2356 48.947 31.2758C48.947 31.316 48.9625 31.3546 48.9902 31.3836C49.2802 31.8114 49.6876 32.1469 50.1635 32.3503C50.7202 32.6091 51.329 32.7392 51.9433 32.7314C53.1531 32.7314 54.0983 32.398 54.7768 31.7314C55.4575 31.0647 55.7951 30.0814 55.794 28.7803V22.1836C55.7973 22.1611 55.795 22.1382 55.7873 22.1169C55.7796 22.0955 55.7666 22.0764 55.7497 22.0614C55.7327 22.046 55.7122 22.0352 55.69 22.0297C55.6678 22.0243 55.6446 22.0245 55.6224 22.0303V22.0303ZM62.8479 25.5547C62.545 25.3133 62.1922 25.1429 61.8152 25.0558C61.3053 24.9391 60.783 24.8854 60.2601 24.8958C59.7129 24.8858 59.1671 24.9531 58.6386 25.0958C58.22 25.2104 57.8235 25.3944 57.4653 25.6403C57.4464 25.6497 57.4299 25.6632 57.4169 25.68C57.404 25.6967 57.3949 25.7161 57.3904 25.7368C57.386 25.7575 57.3862 25.779 57.3911 25.7996C57.396 25.8202 57.4055 25.8394 57.4189 25.8558L58.1195 27.0791C58.1682 27.1614 58.2368 27.1714 58.3187 27.1091C58.529 26.9647 58.7592 26.8536 59.0039 26.7803C59.3235 26.6835 59.6562 26.6374 59.9901 26.6436C60.4118 26.6018 60.8364 26.6869 61.2098 26.888C61.322 26.9824 61.4104 27.102 61.4677 27.2372C61.525 27.3724 61.5497 27.5192 61.5396 27.6658V27.9447C61.5407 27.9575 61.5389 27.9703 61.5343 27.9822C61.5297 27.9942 61.5224 28.0049 61.5131 28.0136C61.5038 28.0222 61.4927 28.0286 61.4807 28.0325C61.4686 28.0363 61.4559 28.0375 61.4433 28.0358H60.1085C59.3138 27.9999 58.5267 28.2047 57.8494 28.6236C57.5651 28.8284 57.3379 29.1029 57.1893 29.4209C57.0407 29.739 56.9757 30.0899 57.0005 30.4403C56.9905 30.7958 57.0591 31.1491 57.2019 31.4758C57.3259 31.7525 57.5118 31.9958 57.7476 32.1869C57.9822 32.378 58.2545 32.5191 58.5467 32.6003C58.8566 32.6869 59.1776 32.7314 59.4997 32.7314C59.9369 32.7469 60.3719 32.6703 60.7759 32.5058C61.0838 32.375 61.3548 32.17 61.5651 31.9091V32.4069C61.5625 32.4278 61.5648 32.449 61.5717 32.4688C61.5786 32.4887 61.59 32.5067 61.6049 32.5214C61.6348 32.5525 61.678 32.5658 61.72 32.5614H63.4467C63.4677 32.564 63.4889 32.5617 63.5089 32.5548C63.5289 32.5478 63.547 32.5364 63.5618 32.5214C63.5766 32.5066 63.5878 32.4885 63.5945 32.4687C63.6012 32.4488 63.6033 32.4277 63.6006 32.4069V27.6036C63.6089 27.1943 63.5491 26.7864 63.4235 26.3969C63.3128 26.0691 63.1136 25.778 62.8479 25.5547ZM61.533 30.0658C61.533 30.7591 61.067 31.1058 60.135 31.1058C59.4079 31.1058 59.0459 30.8436 59.0459 30.3147C59.0459 29.7869 59.4909 29.4625 60.3819 29.4625H61.4367C61.4498 29.4608 61.463 29.4621 61.4755 29.4663C61.488 29.4706 61.4993 29.4776 61.5086 29.4869C61.5264 29.5058 61.5363 29.5314 61.533 29.558V30.0658ZM71.2732 25.0658H65.604C65.5831 25.0631 65.5619 25.0652 65.5419 25.0719C65.522 25.0786 65.5038 25.0899 65.4889 25.1047C65.4737 25.1195 65.4623 25.1377 65.4553 25.1578C65.4484 25.1778 65.4463 25.1992 65.449 25.2203V26.6925C65.4464 26.7134 65.4487 26.7345 65.4556 26.7544C65.4625 26.7742 65.4739 26.7922 65.4889 26.8069C65.5187 26.8369 65.5619 26.8514 65.604 26.8458H68.8658V26.8758L65.2952 30.8558C65.2638 30.9025 65.2465 30.9573 65.2453 31.0136V32.4069C65.2424 32.4281 65.2445 32.4498 65.2514 32.47C65.2583 32.4903 65.2699 32.5086 65.2852 32.5236C65.3173 32.5536 65.3605 32.568 65.4036 32.5614H71.2732C71.2944 32.5649 71.316 32.5633 71.3364 32.5567C71.3568 32.5501 71.3754 32.5388 71.3905 32.5236C71.4057 32.5086 71.417 32.4902 71.4235 32.4699C71.4301 32.4496 71.4317 32.428 71.4282 32.4069V30.9291C71.4318 30.9079 71.4303 30.8861 71.4238 30.8656C71.4172 30.8451 71.4058 30.8265 71.3905 30.8114C71.3753 30.7964 71.3567 30.7852 71.3363 30.7789C71.3159 30.7725 71.2943 30.7711 71.2732 30.7747H67.8531V30.7414L71.395 26.8403C71.4282 26.7958 71.4437 26.7403 71.4415 26.6847V25.2136C71.4443 25.1918 71.4418 25.1697 71.434 25.1491C71.4263 25.1286 71.4136 25.1103 71.3972 25.0958C71.3806 25.081 71.3606 25.0704 71.3389 25.0652C71.3173 25.06 71.2947 25.0602 71.2732 25.0658V25.0658ZM79.6631 27.8691C79.644 27.7106 79.6174 27.553 79.5834 27.3969C79.5546 27.2636 79.5181 27.1303 79.4749 27.0003C79.2767 26.3666 78.8681 25.8203 78.3172 25.4525C77.686 25.0897 76.9714 24.8988 76.244 24.8988C75.5167 24.8988 74.8021 25.0897 74.1709 25.4525C73.6031 25.8191 73.1869 26.3769 72.9977 27.0236C72.9108 27.2769 72.8489 27.5382 72.8128 27.8036C72.7674 28.1403 72.7464 28.4803 72.7497 28.8203C72.746 29.1572 72.7694 29.4938 72.8195 29.8269C72.8615 30.0891 72.9268 30.3491 73.0132 30.6003C73.2083 31.2506 73.6267 31.8104 74.1942 32.1803C74.8392 32.5723 75.5846 32.7662 76.3381 32.738C76.9698 32.7532 77.5982 32.6417 78.1866 32.4103C78.6957 32.2041 79.1558 31.8925 79.5369 31.4958C79.61 31.4236 79.6033 31.3514 79.5214 31.2792L78.4954 30.318C78.4445 30.2458 78.3725 30.2458 78.2784 30.318C78.0615 30.5258 77.8082 30.6916 77.5313 30.8069C77.218 30.9326 76.8824 30.9931 76.5451 30.9847C76.1998 30.9947 75.8589 30.9091 75.5589 30.738C75.2864 30.5688 75.087 30.3032 75 29.9936C74.9445 29.8612 74.912 29.7203 74.9037 29.5769C74.9021 29.5642 74.9036 29.5512 74.9078 29.5391C74.912 29.527 74.9189 29.516 74.928 29.5069C74.9373 29.4976 74.9487 29.4906 74.9612 29.4863C74.9736 29.4821 74.9869 29.4808 75 29.4825H79.5513C79.662 29.4825 79.7184 29.4303 79.7184 29.328V28.4991C79.7184 28.2658 79.6919 28.0436 79.6631 27.8691V27.8691ZM77.4859 28.0236H75.0033C74.9907 28.0251 74.9779 28.0238 74.9658 28.0197C74.9538 28.0157 74.9427 28.0091 74.9335 28.0003C74.9242 27.9915 74.917 27.9808 74.9124 27.9689C74.9078 27.957 74.9059 27.9441 74.907 27.9314C74.907 27.8314 74.9147 27.7303 74.9302 27.6303C74.9302 27.5414 74.9667 27.4558 74.9856 27.3714C75.0629 27.1224 75.2251 26.9088 75.4438 26.768C75.9386 26.4791 76.5506 26.4791 77.0454 26.768C77.2634 26.9091 77.425 27.1236 77.5025 27.3714C77.5213 27.4558 77.5413 27.5414 77.5579 27.6303C77.5734 27.7303 77.5811 27.8303 77.58 27.9314C77.5813 27.944 77.5799 27.9567 77.5756 27.9686C77.5714 27.9805 77.5646 27.9913 77.5557 28.0003C77.5464 28.0089 77.5353 28.0153 77.5232 28.0192C77.5112 28.023 77.4985 28.0241 77.4859 28.0225V28.0236ZM87.8482 27.8691C87.8131 27.5742 87.7501 27.2832 87.66 27.0003C87.4621 26.3667 87.0539 25.8205 86.5034 25.4525C85.8721 25.0894 85.1572 24.8985 84.4297 24.8985C83.7022 24.8985 82.9873 25.0894 82.356 25.4525C81.7893 25.8203 81.3732 26.3769 81.1828 27.0236C81.0959 27.2769 81.034 27.5382 80.9979 27.8036C80.9526 28.1403 80.9315 28.4803 80.936 28.8203C80.9319 29.1571 80.9548 29.4938 81.0046 29.8269C81.0466 30.0891 81.1119 30.3491 81.1983 30.6003C81.3934 31.2506 81.8118 31.8104 82.3793 32.1803C83.0246 32.5718 83.7697 32.7656 84.5232 32.738C85.155 32.7532 85.7833 32.6417 86.3717 32.4103C86.8812 32.2043 87.3417 31.8927 87.7231 31.4958C87.7951 31.4236 87.7895 31.3514 87.7231 31.2792L86.6971 30.318C86.6462 30.2458 86.5753 30.2458 86.4801 30.318C86.2639 30.5251 86.0118 30.6908 85.7363 30.8069C85.4231 30.9317 85.0881 30.9921 84.7512 30.9847C84.4048 30.9947 84.0639 30.9091 83.7639 30.738C83.4915 30.5688 83.2921 30.3032 83.205 29.9936C83.1495 29.8612 83.117 29.7203 83.1087 29.5769C83.1073 29.5641 83.1089 29.5511 83.1133 29.539C83.1177 29.5268 83.1249 29.5159 83.1341 29.5069C83.1434 29.4978 83.1545 29.4908 83.1668 29.4866C83.179 29.4824 83.1921 29.481 83.205 29.4825H87.7563C87.867 29.4825 87.9268 29.4303 87.9268 29.328C87.9268 29.0003 87.9268 28.7314 87.9102 28.4991C87.8947 28.2658 87.8681 28.0436 87.8482 27.8691V27.8691ZM85.671 28.0236H83.1884C83.1758 28.0251 83.163 28.0238 83.1509 28.0197C83.1389 28.0157 83.1278 28.0091 83.1186 28.0003C83.1095 27.9914 83.1025 27.9807 83.0981 27.9687C83.0937 27.9568 83.092 27.944 83.0932 27.9314C83.0921 27.7419 83.1182 27.5533 83.1707 27.3714C83.248 27.1224 83.4102 26.9088 83.6289 26.768C84.1237 26.4791 84.7358 26.4791 85.2305 26.768C85.4486 26.9091 85.6113 27.1236 85.6876 27.3714C85.7406 27.5536 85.7671 27.7426 85.7662 27.9325C85.7671 27.9448 85.7653 27.9571 85.7609 27.9686C85.7565 27.9802 85.7496 27.9906 85.7408 27.9991C85.7317 28.0081 85.7207 28.015 85.7086 28.0192C85.6966 28.0235 85.6837 28.025 85.671 28.0236V28.0236ZM94.362 25.0269C94.1286 24.9506 93.8847 24.9116 93.6392 24.9114C93.2269 24.9001 92.8178 24.9877 92.446 25.1669C92.1284 25.3236 91.8627 25.5691 91.6823 25.8725V25.2369C91.6852 25.2157 91.6832 25.1941 91.6762 25.1738C91.6693 25.1536 91.6577 25.1352 91.6425 25.1203C91.6271 25.1053 91.6086 25.0941 91.5882 25.0875C91.5679 25.081 91.5463 25.0793 91.5251 25.0825H89.6634C89.6423 25.0793 89.6207 25.081 89.6003 25.0875C89.58 25.0941 89.5614 25.1053 89.5461 25.1203C89.5306 25.1351 89.5188 25.1534 89.5117 25.1737C89.5046 25.1939 89.5023 25.2156 89.5051 25.2369V32.4236C89.5023 32.4449 89.5046 32.4666 89.5117 32.4868C89.5188 32.5071 89.5306 32.5254 89.5461 32.5403C89.5771 32.5703 89.6202 32.5847 89.6634 32.5769H91.5251C91.5462 32.5803 91.5677 32.5787 91.5881 32.5724C91.6084 32.566 91.627 32.555 91.6425 32.5403C91.6577 32.5253 91.6693 32.507 91.6762 32.4867C91.6832 32.4664 91.6852 32.4448 91.6823 32.4236V28.4569C91.6579 28.0458 91.7554 27.6347 91.9623 27.2791C92.0624 27.1376 92.1953 27.0227 92.3496 26.9445C92.5039 26.8662 92.675 26.827 92.8478 26.8303C93.233 26.828 93.6115 26.9414 93.9325 27.158C94.0034 27.2025 94.0963 27.1914 94.1528 27.128L95.0205 25.548C95.0421 25.5129 95.0494 25.4707 95.0407 25.4303C95.0321 25.3899 95.0082 25.3545 94.9741 25.3314C94.7919 25.1912 94.5844 25.0878 94.3631 25.0269H94.362ZM101.275 25.5547C100.972 25.3133 100.62 25.1429 100.243 25.0558C99.7338 24.9393 99.2127 24.8856 98.6908 24.8958C98.1426 24.8858 97.5956 24.9531 97.066 25.0958C96.6474 25.2104 96.2509 25.3944 95.8927 25.6403C95.8738 25.6497 95.8573 25.6632 95.8443 25.68C95.8313 25.6967 95.8223 25.7161 95.8178 25.7368C95.8134 25.7575 95.8136 25.779 95.8185 25.7996C95.8234 25.8202 95.8329 25.8394 95.8462 25.8558L96.5469 27.0791C96.5956 27.1614 96.6653 27.1714 96.7461 27.1091C96.9564 26.9647 97.1877 26.8536 97.4312 26.7803C97.7509 26.6835 98.0836 26.6374 98.4174 26.6436C98.8395 26.6016 99.2645 26.6867 99.6383 26.888C99.7503 26.9825 99.8385 27.1022 99.8956 27.2373C99.9527 27.3725 99.9772 27.5193 99.967 27.6658V27.9447C99.9681 27.9575 99.9662 27.9703 99.9616 27.9822C99.957 27.9942 99.9498 28.0049 99.9405 28.0136C99.9313 28.022 99.9204 28.0284 99.9086 28.0322C99.8967 28.0361 99.8842 28.0373 99.8718 28.0358H98.5348C97.7404 28.0002 96.9538 28.2049 96.2768 28.6236C95.688 29.0414 95.3614 29.7347 95.4135 30.4525C95.4046 30.808 95.4721 31.1625 95.6149 31.4891C95.7389 31.7647 95.9248 32.0091 96.1606 32.2003C96.3952 32.3914 96.6675 32.5325 96.9597 32.6136C97.2696 32.7003 97.5906 32.7447 97.9138 32.7447C98.3499 32.7603 98.7849 32.6825 99.19 32.518C99.4979 32.3872 99.7689 32.1823 99.9792 31.9214V32.4203C99.9765 32.441 99.9786 32.4622 99.9853 32.482C99.992 32.5019 100.003 32.5199 100.018 32.5347C100.048 32.5647 100.091 32.5791 100.133 32.5747H101.86C101.881 32.5773 101.902 32.575 101.922 32.5681C101.942 32.5612 101.96 32.5497 101.975 32.5347C101.99 32.52 102.001 32.502 102.008 32.4822C102.015 32.4623 102.017 32.4411 102.015 32.4203V27.6036C102.023 27.1943 101.963 26.7864 101.838 26.3969C101.729 26.0703 101.534 25.7793 101.274 25.5547H101.275ZM99.9604 30.0658C99.9604 30.7591 99.4944 31.1058 98.5624 31.1058C97.8352 31.1058 97.4744 30.8436 97.4744 30.3147C97.4744 29.7869 97.9171 29.4625 98.8093 29.4625H99.8652C99.8781 29.461 99.8911 29.4624 99.9034 29.4666C99.9156 29.4708 99.9268 29.4778 99.936 29.4869C99.9548 29.5058 99.9637 29.5314 99.9604 29.558V30.0658V30.0658ZM114.595 22.9747C114.258 22.6665 113.862 22.4299 113.431 22.2791C112.936 22.1064 112.416 22.0222 111.892 22.0303H107.79C107.769 22.0275 107.748 22.0296 107.728 22.0363C107.708 22.0431 107.69 22.0543 107.675 22.0692C107.66 22.084 107.649 22.102 107.642 22.1218C107.636 22.1417 107.634 22.1628 107.636 22.1836V32.4069C107.634 32.4277 107.636 32.4488 107.642 32.4687C107.649 32.4885 107.66 32.5066 107.675 32.5214C107.705 32.5525 107.748 32.5658 107.79 32.5614H109.764C109.785 32.564 109.806 32.5617 109.826 32.5548C109.846 32.5478 109.864 32.5364 109.879 32.5214C109.894 32.5067 109.905 32.4887 109.912 32.4688C109.919 32.449 109.921 32.4278 109.919 32.4069V28.8891C109.917 28.8765 109.919 28.8637 109.924 28.8518C109.928 28.8399 109.935 28.8291 109.944 28.8203C109.953 28.8117 109.964 28.8052 109.977 28.8014C109.989 28.7975 110.001 28.7964 110.014 28.798H111.891C112.415 28.8047 112.936 28.7214 113.43 28.5514C113.859 28.3991 114.253 28.1614 114.588 27.8525C114.905 27.5525 115.153 27.188 115.319 26.7836C115.49 26.3503 115.576 25.8869 115.571 25.4203C115.578 24.9494 115.494 24.4817 115.324 24.0425C115.162 23.6369 114.913 23.2723 114.594 22.9747H114.595ZM112.885 26.4525C112.571 26.7203 112.166 26.8558 111.753 26.8303H110.014C109.951 26.8303 109.919 26.8003 109.919 26.738V24.0891C109.919 24.0269 109.952 23.9969 110.014 23.9969H111.753C112.167 23.9714 112.574 24.1103 112.885 24.3836C113.159 24.6569 113.307 25.0336 113.289 25.4203C113.308 25.8058 113.161 26.1825 112.885 26.4536V26.4525ZM122.168 25.5547C121.863 25.314 121.51 25.1437 121.132 25.0558C120.623 24.9392 120.102 24.8854 119.58 24.8958C119.032 24.886 118.485 24.9534 117.955 25.0958C117.537 25.2096 117.141 25.3936 116.784 25.6403C116.766 25.6498 116.749 25.6634 116.736 25.6802C116.723 25.6969 116.714 25.7164 116.71 25.7371C116.706 25.7578 116.706 25.7792 116.711 25.7998C116.716 25.8203 116.726 25.8395 116.739 25.8558L117.436 27.0791C117.488 27.1614 117.555 27.1714 117.64 27.1091C117.849 26.9628 118.08 26.8517 118.324 26.7803C118.643 26.6836 118.977 26.6358 119.31 26.6436C119.733 26.6025 120.157 26.688 120.53 26.888C120.642 26.9824 120.731 27.102 120.788 27.2372C120.845 27.3724 120.87 27.5192 120.86 27.6658V27.9447C120.861 27.9573 120.86 27.9701 120.856 27.9821C120.852 27.994 120.845 28.0048 120.835 28.0136C120.826 28.0222 120.816 28.0287 120.804 28.0326C120.792 28.0364 120.779 28.0375 120.767 28.0358H119.432C118.637 27.9999 117.85 28.2047 117.173 28.6236C116.584 29.0414 116.256 29.7347 116.307 30.4525C116.298 30.808 116.368 31.1636 116.512 31.4891C116.635 31.7647 116.822 32.008 117.054 32.2003C117.287 32.3847 117.555 32.5203 117.84 32.6003C118.151 32.688 118.473 32.7314 118.798 32.7314C119.233 32.7469 119.667 32.6691 120.071 32.5058C120.379 32.375 120.652 32.1702 120.863 31.9091H120.879V32.4069C120.876 32.4278 120.878 32.449 120.885 32.4688C120.892 32.4887 120.903 32.5067 120.918 32.5214C120.948 32.5525 120.992 32.5658 121.034 32.5614H122.774C122.795 32.5646 122.816 32.5629 122.837 32.5563C122.857 32.5498 122.876 32.5386 122.891 32.5236C122.906 32.5086 122.918 32.4903 122.925 32.47C122.932 32.4498 122.934 32.4281 122.931 32.4069V27.6036C122.938 27.1941 122.877 26.7862 122.75 26.3969C122.638 26.0674 122.436 25.7757 122.168 25.5547V25.5547ZM120.853 30.0658C120.853 30.758 120.388 31.1058 119.455 31.1058C118.731 31.1058 118.371 30.8436 118.371 30.3147C118.371 29.7869 118.813 29.4625 119.705 29.4625H120.76C120.823 29.4625 120.853 29.4958 120.853 29.558V30.0658V30.0658ZM124.923 22.0303H126.908C126.96 22.0303 127.003 22.0725 127.003 22.1247V23.778C127.003 23.7905 127 23.8029 126.996 23.8144C126.991 23.826 126.984 23.8364 126.975 23.8452C126.966 23.854 126.955 23.8609 126.944 23.8656C126.932 23.8703 126.92 23.8726 126.908 23.8725H124.923C124.898 23.8725 124.874 23.8625 124.856 23.8448C124.839 23.8271 124.829 23.8031 124.829 23.778V22.1247C124.829 22.0725 124.871 22.0303 124.923 22.0303ZM124.923 25.0658H126.908C126.96 25.0658 127.003 25.108 127.003 25.1614V32.4658C127.003 32.4784 127.001 32.4909 126.996 32.5026C126.991 32.5142 126.984 32.5248 126.975 32.5337C126.966 32.5426 126.956 32.5497 126.944 32.5544C126.933 32.5592 126.92 32.5615 126.908 32.5614H124.923C124.911 32.5614 124.898 32.5589 124.887 32.5541C124.875 32.5493 124.865 32.5422 124.856 32.5333C124.847 32.5244 124.84 32.5139 124.836 32.5023C124.831 32.4907 124.829 32.4783 124.829 32.4658V25.1614C124.829 25.108 124.871 25.0658 124.923 25.0658V25.0658ZM135.004 25.6825C134.783 25.4316 134.507 25.2353 134.198 25.1091C133.847 24.9697 133.471 24.9017 133.093 24.9092C132.678 24.8935 132.265 24.9772 131.889 25.1536C131.601 25.2969 131.348 25.5048 131.152 25.7614H131.137V25.2336C131.14 25.2125 131.137 25.1912 131.131 25.1711C131.124 25.151 131.112 25.1329 131.097 25.118C131.082 25.1032 131.064 25.092 131.044 25.0852C131.024 25.0785 131.003 25.0764 130.982 25.0792H129.117C129.096 25.0764 129.075 25.0785 129.055 25.0852C129.035 25.092 129.017 25.1032 129.002 25.118C128.987 25.133 128.976 25.1512 128.969 25.1712C128.962 25.1913 128.96 25.2126 128.963 25.2336V32.4203C128.96 32.441 128.962 32.4622 128.969 32.482C128.976 32.5019 128.987 32.5199 129.002 32.5347C129.032 32.5647 129.075 32.5791 129.117 32.5747H130.995C131.016 32.5773 131.037 32.575 131.057 32.5681C131.077 32.5612 131.095 32.5497 131.11 32.5347C131.125 32.5199 131.136 32.5019 131.143 32.482C131.15 32.4622 131.152 32.441 131.149 32.4203V28.098C131.134 27.7434 131.245 27.3949 131.462 27.1147C131.569 26.9908 131.703 26.893 131.853 26.8289C132.004 26.7647 132.167 26.7359 132.33 26.7447C132.495 26.7323 132.661 26.7593 132.813 26.8237C132.966 26.888 133.101 26.9877 133.208 27.1147C133.409 27.4036 133.51 27.748 133.494 28.0991V32.4069C133.491 32.4281 133.494 32.4498 133.5 32.47C133.507 32.4903 133.519 32.5086 133.534 32.5236C133.565 32.5536 133.61 32.568 133.652 32.5614H135.513C135.534 32.5646 135.556 32.5629 135.576 32.5563C135.597 32.5498 135.615 32.5386 135.631 32.5236C135.646 32.5087 135.658 32.4905 135.665 32.4702C135.672 32.4499 135.674 32.4282 135.672 32.4069V27.6825C135.675 27.2991 135.62 26.9176 135.507 26.5514C135.401 26.2301 135.23 25.9342 135.004 25.6825V25.6825ZM140.924 25.0658H139.961C139.948 25.0675 139.934 25.0662 139.922 25.062C139.909 25.0577 139.898 25.0507 139.889 25.0414C139.88 25.0323 139.873 25.0213 139.868 25.0092C139.864 24.9971 139.863 24.9841 139.864 24.9714V22.9603C139.868 22.9392 139.866 22.9177 139.859 22.8975C139.853 22.8772 139.842 22.8588 139.827 22.8436C139.812 22.8282 139.793 22.8166 139.773 22.8097C139.752 22.8027 139.731 22.8006 139.709 22.8036H137.861C137.84 22.8008 137.818 22.803 137.798 22.8099C137.778 22.8169 137.76 22.8284 137.745 22.8436C137.73 22.8589 137.718 22.8775 137.712 22.898C137.705 22.9184 137.704 22.9402 137.707 22.9614V24.9714C137.707 25.0336 137.677 25.0658 137.615 25.0658H137.148C137.127 25.0623 137.105 25.0639 137.085 25.0705C137.064 25.0771 137.046 25.0884 137.031 25.1036C137.016 25.1186 137.004 25.137 136.998 25.1573C136.991 25.1776 136.99 25.1992 136.993 25.2203V26.5058C136.99 26.5267 136.992 26.5481 136.998 26.5681C137.005 26.5882 137.016 26.6065 137.031 26.6214C137.062 26.6525 137.105 26.6658 137.148 26.6591H137.615C137.677 26.6591 137.707 26.6925 137.707 26.7547V30.1614C137.707 31.0158 137.887 31.6447 138.249 32.0503C138.611 32.4525 139.237 32.6525 140.098 32.6525H140.924C140.944 32.6552 140.966 32.6531 140.986 32.6464C141.006 32.6397 141.024 32.6284 141.039 32.6136C141.053 32.5988 141.065 32.5808 141.071 32.5609C141.078 32.5411 141.08 32.5199 141.077 32.4991V30.9647C141.08 30.9437 141.078 30.9224 141.072 30.9024C141.065 30.8823 141.054 30.8641 141.039 30.8491C141.024 30.8343 141.006 30.8231 140.986 30.8163C140.966 30.8096 140.944 30.8075 140.924 30.8103H140.548C140.454 30.8203 140.359 30.8109 140.269 30.7826C140.178 30.7543 140.094 30.7078 140.023 30.6458C139.899 30.4793 139.843 30.2722 139.864 30.0658V26.7547C139.863 26.7418 139.864 26.7286 139.868 26.7163C139.872 26.7039 139.879 26.6928 139.889 26.6836C139.898 26.6744 139.909 26.6675 139.921 26.6633C139.934 26.659 139.947 26.6576 139.959 26.6591H140.922C140.944 26.6626 140.965 26.661 140.986 26.6545C141.006 26.6479 141.025 26.6366 141.04 26.6214C141.055 26.6065 141.066 26.5882 141.072 26.5681C141.079 26.5481 141.081 26.5267 141.077 26.5058V25.2203C141.08 25.1993 141.078 25.178 141.072 25.1579C141.065 25.1379 141.054 25.1196 141.039 25.1047C141.024 25.0899 141.006 25.0786 140.986 25.0719C140.966 25.0652 140.944 25.0631 140.924 25.0658V25.0658ZM146.498 27.8825L145.675 27.7903C145.383 27.7866 145.096 27.7147 144.836 27.5803C144.771 27.5346 144.718 27.4733 144.683 27.4019C144.647 27.3304 144.63 27.2512 144.633 27.1714C144.632 27.0828 144.652 26.9954 144.693 26.9169C144.734 26.8384 144.793 26.7712 144.866 26.7214C145.082 26.5936 145.332 26.5336 145.583 26.5514C145.963 26.5491 146.342 26.6091 146.701 26.7314C147.022 26.8347 147.329 26.9769 147.616 27.1536C147.631 27.1669 147.65 27.1767 147.669 27.1825C147.689 27.1882 147.71 27.1898 147.73 27.1871C147.751 27.1844 147.77 27.1774 147.788 27.1667C147.806 27.156 147.821 27.1417 147.832 27.1247L148.705 26.0558C148.72 26.0397 148.731 26.0208 148.738 26.0001C148.745 25.9794 148.748 25.9574 148.747 25.9355C148.745 25.9136 148.739 25.8923 148.729 25.8729C148.719 25.8534 148.705 25.8363 148.688 25.8225C148.287 25.5342 147.843 25.3129 147.372 25.1669C146.81 24.9864 146.222 24.8982 145.632 24.9058C144.647 24.9058 143.887 25.118 143.346 25.5614C142.811 25.9836 142.511 26.638 142.542 27.318C142.524 27.6135 142.572 27.9091 142.68 28.1843C142.788 28.4596 142.955 28.7077 143.169 28.9114C143.687 29.3357 144.328 29.5808 144.996 29.6103L145.834 29.7025C146.135 29.7058 146.431 29.7836 146.695 29.928C146.83 30.028 146.908 30.1869 146.905 30.3547C146.904 30.4576 146.878 30.5587 146.827 30.6482C146.776 30.7377 146.704 30.8126 146.616 30.8658C146.35 31.0169 146.046 31.0869 145.742 31.0658C145.333 31.0633 144.928 30.99 144.544 30.8491C144.147 30.7081 143.776 30.5045 143.443 30.2458C143.429 30.2306 143.411 30.2185 143.392 30.2102C143.373 30.2019 143.353 30.1976 143.332 30.1976C143.311 30.1976 143.291 30.2019 143.272 30.2102C143.253 30.2185 143.236 30.2306 143.221 30.2458L142.212 31.3747C142.195 31.3876 142.182 31.4041 142.172 31.4231C142.163 31.4421 142.158 31.463 142.158 31.4842C142.158 31.5053 142.163 31.5262 142.172 31.5452C142.182 31.5642 142.195 31.5807 142.212 31.5936C142.631 31.9347 143.101 32.2091 143.603 32.4069C144.251 32.6514 144.94 32.7703 145.632 32.7547C146.707 32.7547 147.533 32.5191 148.109 32.0491C148.389 31.827 148.613 31.5431 148.766 31.2195C148.918 30.8959 148.994 30.5414 148.987 30.1836C148.997 29.8994 148.951 29.6159 148.851 29.3498C148.751 29.0837 148.599 28.8402 148.405 28.6336C148.025 28.218 147.39 27.9669 146.498 27.8825ZM112.388 16.5936V10.1114C112.388 10.0914 112.385 10.0715 112.377 10.0529C112.37 10.0343 112.359 10.0175 112.345 10.0035C112.33 9.98941 112.313 9.97843 112.295 9.97119C112.276 9.96395 112.256 9.96061 112.236 9.96137H110.343C110.323 9.96123 110.303 9.96499 110.285 9.97245C110.267 9.97991 110.25 9.99092 110.236 10.0048C110.222 10.0188 110.211 10.0354 110.203 10.0536C110.195 10.0719 110.191 10.0915 110.191 10.1114V15.0525H103.752C103.65 15.062 103.548 15.051 103.45 15.0201C103.352 14.9892 103.262 14.939 103.184 14.8725C103.04 14.6864 102.974 14.4509 103.002 14.2169V11.088C103.002 11.0685 102.998 11.0492 102.991 11.0312C102.983 11.0132 102.972 10.9969 102.958 10.9832C102.945 10.9694 102.928 10.9586 102.91 10.9512C102.892 10.9438 102.873 10.9401 102.854 10.9403H100.96C100.94 10.9398 100.921 10.9433 100.902 10.9505C100.884 10.9577 100.867 10.9685 100.853 10.9823C100.839 10.996 100.828 11.0125 100.82 11.0306C100.812 11.0488 100.808 11.0683 100.808 11.088V14.7769C100.764 15.3047 100.913 15.8325 101.229 16.258C101.509 16.5858 101.976 16.7303 102.627 16.7303H112.25C112.285 16.7282 112.319 16.713 112.345 16.6876C112.37 16.6623 112.386 16.6284 112.388 16.5925V16.5936ZM105.471 10.1147C105.736 10.0743 105.977 9.93677 106.146 9.72866C106.316 9.52055 106.403 9.25667 106.39 8.98804C106.376 8.7193 106.263 8.46544 106.073 8.27544C105.883 8.08544 105.63 7.97277 105.362 7.95915C105.094 7.9441 104.83 8.02906 104.621 8.19768C104.411 8.3663 104.272 8.60665 104.228 8.87248C104.202 9.04165 104.215 9.2148 104.268 9.37765C104.321 9.5405 104.412 9.6884 104.533 9.80915C104.654 9.93036 104.803 10.0212 104.966 10.0742C105.129 10.1273 105.302 10.1412 105.471 10.1147V10.1147ZM108.067 10.1147C108.332 10.0735 108.572 9.93535 108.741 9.72685C108.91 9.51834 108.996 9.25432 108.982 8.98582C108.967 8.71748 108.853 8.46429 108.663 8.27496C108.473 8.08563 108.22 7.97354 107.953 7.96026C107.685 7.94546 107.422 8.03039 107.213 8.19876C107.004 8.36713 106.864 8.60706 106.821 8.87248C106.765 9.21693 106.879 9.56471 107.125 9.81137C107.372 10.0558 107.723 10.1703 108.066 10.1147H108.067ZM93.0968 6.7936H95.1058C95.1567 6.7936 95.1987 6.83582 95.1987 6.88693V16.6514C95.1987 16.6761 95.1889 16.6999 95.1715 16.7174C95.1541 16.7349 95.1304 16.7447 95.1058 16.7447H93.0968C93.0724 16.7444 93.049 16.7345 93.0318 16.717C93.0146 16.6995 93.005 16.6759 93.005 16.6514V6.88804C93.005 6.83693 93.0459 6.79471 93.0968 6.79471V6.7936Z" fill="white"/>
<path d="M60.0496 16.4657V16.2168C60.2234 16.4335 60.457 16.7446 61.3347 16.7446H72.7861C72.8691 16.7446 72.9377 16.6779 72.9377 16.5935V10.1113C72.9376 10.0914 72.9335 10.0718 72.9258 10.0535C72.9181 10.0352 72.9069 10.0187 72.8929 10.0047C72.8788 9.9908 72.8621 9.97979 72.8438 9.97234C72.8255 9.96488 72.8059 9.96111 72.7861 9.96126H70.8923C70.8524 9.96125 70.8142 9.97699 70.7858 10.0051C70.7575 10.0331 70.7412 10.0713 70.7406 10.1113V15.0524H61.3214C60.9894 15.069 60.6573 14.9901 60.3684 14.8268C60.2705 14.7567 60.19 14.6649 60.133 14.5585C60.076 14.4522 60.0441 14.3342 60.0397 14.2135V10.1113C60.0401 10.0915 60.0366 10.0719 60.0293 10.0536C60.022 10.0353 60.0112 10.0186 59.9973 10.0046C59.9835 9.99058 59.9669 9.97952 59.9487 9.97208C59.9305 9.96464 59.911 9.96096 59.8914 9.96126H57.9876C57.9677 9.96081 57.948 9.96437 57.9296 9.97172C57.9111 9.97907 57.8943 9.99007 57.8802 10.0041C57.866 10.018 57.8548 10.0347 57.8472 10.0532C57.8396 10.0716 57.8358 10.0913 57.836 10.1113V16.0457C57.836 16.3746 57.836 16.6524 57.8027 16.899C57.7917 17.1157 57.7408 17.329 57.6555 17.5279C57.5844 17.6915 57.462 17.8273 57.3069 17.9146C57.1021 18.0157 56.8752 18.0624 56.6483 18.049H56.3196V19.2624C56.3196 19.2624 60.0496 20.3513 60.0496 16.4657V16.4657ZM76.525 9.09904C76.7888 9.05788 77.028 8.92005 77.1964 8.71217C77.3649 8.50428 77.4506 8.24111 77.437 7.97348C77.4221 7.70583 77.309 7.45321 77.1195 7.26428C76.9301 7.07534 76.6777 6.96345 76.411 6.95015C76.1443 6.93534 75.8816 7.01992 75.6732 7.18767C75.4648 7.35541 75.3255 7.5945 75.282 7.85904C75.2564 8.02794 75.271 8.20052 75.3245 8.36272C75.3779 8.52491 75.4688 8.67213 75.5897 8.79237C75.711 8.91314 75.8587 9.00376 76.0211 9.05701C76.1835 9.11025 76.3561 9.12465 76.525 9.09904V9.09904ZM69.4678 17.6301C69.2029 17.6705 68.9624 17.8081 68.7927 18.0162C68.623 18.2243 68.5362 18.4882 68.5491 18.7568C68.5635 19.0257 68.6768 19.2797 68.8669 19.4698C69.057 19.6598 69.3105 19.7724 69.5785 19.7857C69.8462 19.8005 70.1099 19.7154 70.3189 19.5468C70.5279 19.3782 70.6675 19.138 70.7108 18.8724C70.7371 18.7033 70.7231 18.5304 70.67 18.3677C70.6169 18.2051 70.5262 18.0575 70.4053 17.9368C70.2837 17.8157 70.1356 17.7249 69.9728 17.6716C69.81 17.6184 69.637 17.6042 69.4678 17.6301V17.6301ZM82.7543 17.6301C82.4894 17.6705 82.2489 17.8081 82.0792 18.0162C81.9095 18.2243 81.8227 18.4882 81.8356 18.7568C81.8501 19.0256 81.9631 19.2794 82.153 19.4694C82.3429 19.6594 82.5961 19.7721 82.8639 19.7857C83.1318 19.8008 83.3958 19.7158 83.605 19.5472C83.8143 19.3786 83.954 19.1382 83.9973 18.8724C84.0227 18.7035 84.0081 18.5309 83.9546 18.3688C83.9011 18.2066 83.8103 18.0594 83.6896 17.939C83.5683 17.8182 83.4206 17.7273 83.2583 17.6737C83.0959 17.6201 82.9234 17.6052 82.7543 17.6301V17.6301Z" fill="white"/>
<path d="M77.4826 16.4659V16.237C77.6431 16.4448 77.8667 16.5937 78.1202 16.6626C78.2862 16.7059 78.4555 16.7337 78.6271 16.7448H90.8998C90.9839 16.7448 91.0514 16.6781 91.0514 16.5937V6.94481C91.0503 6.9049 91.0339 6.86695 91.0057 6.83883C90.9775 6.8107 90.9395 6.79454 90.8998 6.7937H89.006C88.9662 6.79454 88.9283 6.8107 88.9 6.83883C88.8718 6.86695 88.8554 6.9049 88.8543 6.94481V15.0526H86.8808C86.6777 14.6893 86.5388 14.2935 86.4702 13.8826C86.4161 13.586 86.3887 13.2852 86.3883 12.9837C86.3883 10.7248 84.8321 10.0104 83.2703 9.85926C82.2608 9.78852 81.2465 9.86941 80.2608 10.0993C80.2414 10.1034 80.223 10.1116 80.2069 10.1234C80.1909 10.1351 80.1774 10.1501 80.1675 10.1674C80.1576 10.1847 80.1514 10.2039 80.1494 10.2237C80.1473 10.2436 80.1495 10.2636 80.1556 10.2826L80.574 11.5937C80.5962 11.6626 80.6659 11.7048 80.7378 11.6959C81.3869 11.5636 82.0502 11.5162 82.7113 11.5548C83.5072 11.7059 84.1945 12.0459 84.1945 13.0959C84.1834 13.7626 84.2831 14.427 84.4867 15.0626H78.6625C78.3632 15.0801 78.0661 15.0011 77.8147 14.837C77.6126 14.6202 77.4958 14.3371 77.4859 14.0404V10.1104C77.4858 10.0905 77.4818 10.0709 77.4741 10.0526C77.4664 10.0343 77.4551 10.0178 77.4411 10.0038C77.427 9.98991 77.4103 9.9789 77.392 9.97144C77.3737 9.96399 77.3541 9.96022 77.3343 9.96037H75.4405C75.4206 9.95992 75.4009 9.96348 75.3825 9.97083C75.364 9.97818 75.3472 9.98918 75.3331 10.0032C75.3189 10.0172 75.3077 10.0339 75.3001 10.0523C75.2925 10.0707 75.2887 10.0904 75.2889 10.1104V16.0448C75.2889 16.3737 75.2889 16.6515 75.259 16.8981C75.244 17.1144 75.1943 17.3268 75.1118 17.527C75.0384 17.6902 74.9151 17.8257 74.7598 17.9137C74.555 18.0148 74.3281 18.0615 74.1012 18.0481H73.747V19.2615C73.747 19.2615 77.4826 20.3504 77.4826 16.4648V16.4659ZM54.8432 10.9281C54.5229 10.6637 54.149 10.4726 53.7475 10.3681C52.8686 10.1448 51.9477 10.1448 51.0689 10.3681C50.6667 10.4733 50.2918 10.6643 49.9698 10.9281C49.6378 11.2137 49.3799 11.5748 49.2172 11.9804C48.8443 13.0088 48.8443 14.1363 49.2172 15.1648C49.3799 15.5704 49.6378 15.9315 49.9698 16.217C50.2963 16.4759 50.676 16.6615 51.0811 16.7615C51.961 16.9837 52.8819 16.9837 53.7619 16.7615C54.1636 16.6559 54.5366 16.4648 54.8576 16.2004C55.1897 15.9148 55.4487 15.5537 55.6125 15.1481C55.9808 14.1192 55.9808 12.9937 55.6125 11.9648C55.4423 11.5625 55.1785 11.207 54.8432 10.9281V10.9281ZM53.6788 13.5837C53.6788 14.7104 53.2549 15.2748 52.406 15.2793C51.5581 15.2837 51.1331 14.7181 51.1331 13.5837V13.5504C51.1331 12.4281 51.5581 11.8637 52.406 11.8593C53.2549 11.8548 53.6788 12.4193 53.6788 13.5515V13.5848V13.5837Z" fill="white"/>
<defs>
<linearGradient id="paint0_linear" x1="30.9304" y1="26.1046" x2="30.9312" y2="17.9734" gradientUnits="userSpaceOnUse">
<stop stop-color="#E30613"/>
<stop offset="1" stop-color="#FBBB21"/>
</linearGradient>
<linearGradient id="paint1_linear" x1="43.193" y1="29.701" x2="22.7475" y2="29.7244" gradientUnits="userSpaceOnUse">
<stop stop-color="#E63323"/>
<stop offset="1" stop-color="#7F1810"/>
</linearGradient>
<linearGradient id="paint2_linear" x1="22.5666" y1="30.605" x2="13.7938" y2="30.605" gradientUnits="userSpaceOnUse">
<stop stop-color="#E63323"/>
<stop offset="1" stop-color="#7F1810"/>
</linearGradient>
<linearGradient id="paint3_linear" x1="10.7165" y1="15.3624" x2="10.7189" y2="35.421" gradientUnits="userSpaceOnUse">
<stop stop-color="#183E75"/>
<stop offset="1" stop-color="#008ECF"/>
</linearGradient>
<linearGradient id="paint4_linear" x1="9.4994" y1="13.9644" x2="9.49764" y2="22.0934" gradientUnits="userSpaceOnUse">
<stop stop-color="#183E75"/>
<stop offset="1" stop-color="#008ECF"/>
</linearGradient>
<linearGradient id="paint5_linear" x1="4.55737" y1="11.4166" x2="25.0061" y2="11.3932" gradientUnits="userSpaceOnUse">
<stop stop-color="#3AAA35"/>
<stop offset="1" stop-color="#133A22"/>
</linearGradient>
<linearGradient id="paint6_linear" x1="17.7936" y1="9.5121" x2="26.8835" y2="9.51395" gradientUnits="userSpaceOnUse">
<stop stop-color="#3AAA35"/>
<stop offset="1" stop-color="#133A22"/>
</linearGradient>
<linearGradient id="paint7_linear" x1="29.9833" y1="23.5043" x2="29.9833" y2="4.50317" gradientUnits="userSpaceOnUse">
<stop stop-color="#E30613"/>
<stop offset="1" stop-color="#FBBB21"/>
</linearGradient>
<clipPath id="clip0">
<rect width="40.6554" height="40" fill="white"/>
</clipPath>
</defs>
</svg>
